<?xml version="1.0" standalone="no"?>
<!DOCTYPE svg PUBLIC "-//W3C//DTD SVG 20010904//EN"
 "http://www.w3.org/TR/2001/REC-SVG-20010904/DTD/svg10.dtd">
<svg version="1.0" xmlns="http://www.w3.org/2000/svg"
 width="500.000000pt" height="500.000000pt" viewBox="0 0 500.000000 500.000000"
 preserveAspectRatio="xMidYMid meet">
<metadata>
Created by potrace 1.16, written by Peter Selinger 2001-2019
</metadata>
<g transform="translate(0.000000,500.000000) scale(0.100000,-0.100000)"
fill="#000000" stroke="none">
<path d="M2365 3994 c-409 -62 -729 -233 -1002 -535 -160 -178 -270 -419 -319
-698 -21 -120 -24 -387 -5 -486 17 -89 58 -240 76 -279 108 -238 147 -305 253
-437 219 -272 518 -458 852 -530 90 -20 134 -23 305 -23 169 0 216 3 302 22
352 76 642 261 855 542 96 127 111 150 114 174 1 11 16 50 32 86 67 146 111
326 116 470 2 52 2 77 0 55 -11 -108 -39 -250 -70 -345 -35 -109 -127 -287
-194 -375 -64 -85 -162 -186 -175 -181 -7 2 -23 -7 -36 -22 l-24 -27 30 25
c17 13 10 3 -15 -23 -44 -47 -80 -67 -44 -24 l19 22 -23 -19 c-12 -11 -20 -21
-17 -24 7 -7 -15 -32 -27 -32 -6 0 -4 8 3 18 11 15 11 15 -1 4 -8 -7 -15 -17
-15 -23 0 -5 -16 -19 -35 -31 l-35 -21 30 27 c21 18 6 13 -50 -20 -44 -25 -85
-52 -91 -60 -6 -7 -14 -11 -17 -7 -4 3 -7 1 -7 -5 0 -22 -56 -43 -85 -32 -19
7 -24 7 -19 -1 4 -7 1 -10 -7 -7 -8 3 -45 -6 -84 -19 -147 -50 -390 -83 -480
-65 -30 6 -4 10 110 14 129 6 167 11 275 41 135 38 300 103 300 119 0 5 5 6
12 2 6 -4 8 -3 4 4 -4 7 -33 -1 -85 -24 -43 -19 -88 -34 -98 -34 -10 0 -23 -4
-28 -9 -19 -17 -240 -63 -330 -68 -119 -7 -322 12 -413 38 -201 57 -343 129
-501 255 -185 148 -284 262 -375 435 -99 187 -145 366 -153 594 -6 176 5 267
52 430 77 268 273 549 499 716 185 137 435 233 661 254 39 3 81 9 95 12 25 6
25 6 -5 13 -16 4 11 6 60 5 50 -1 103 -8 119 -14 17 -7 68 -14 115 -17 85 -4
144 -17 169 -37 7 -5 15 -7 18 -4 3 3 19 1 35 -5 17 -6 28 -12 26 -14 -2 -3
-16 0 -31 6 -15 5 -25 6 -22 1 4 -5 25 -16 49 -24 23 -8 51 -18 62 -22 l20 -8
-20 17 c-19 16 -19 16 8 5 15 -7 27 -16 27 -21 0 -4 7 -8 15 -8 38 0 203 -104
293 -185 28 -26 52 -43 52 -39 0 14 71 -60 144 -151 76 -94 98 -128 94 -144
-2 -5 4 -16 13 -23 19 -15 89 -176 112 -259 9 -31 24 -71 32 -90 l16 -34 -7
35 c-13 75 -77 247 -125 339 -68 127 -122 203 -226 312 -211 222 -471 362
-768 415 -120 21 -362 23 -480 5 -82 -13 -129 -30 -90 -31 11 -1 -18 -12 -65
-26 -183 -54 -338 -137 -504 -271 -121 -96 -181 -160 -259 -274 -31 -45 -57
-78 -57 -73 0 6 23 44 51 85 68 97 269 296 357 353 38 24 79 54 90 66 12 13
25 19 33 15 8 -5 10 -4 5 4 -5 8 23 26 86 55 285 133 590 166 908 97 46 -10
91 -16 99 -13 8 3 12 1 8 -5 -3 -5 24 -19 62 -31 88 -28 255 -110 331 -162 58
-39 252 -205 258 -221 2 -4 19 -25 39 -46 62 -66 122 -152 180 -259 31 -57 58
-102 60 -101 6 7 -28 81 -83 179 -140 249 -324 426 -603 577 -206 112 -365
151 -631 156 -96 2 -188 1 -205 -1z"/>
<path d="M1675 3083 c-3 -11 -1 -19 7 -22 22 -7 68 -59 68 -75 0 -54 -168
-946 -185 -984 -11 -24 -28 -39 -55 -49 -26 -11 -40 -22 -40 -34 0 -17 22 -18
424 -18 317 0 427 3 434 12 9 11 72 271 72 296 0 6 -8 11 -19 11 -12 0 -37
-28 -72 -82 -30 -45 -67 -97 -83 -116 -51 -58 -67 -62 -256 -62 l-172 0 7 43
c4 23 24 139 46 257 21 118 39 218 39 223 0 4 45 7 99 7 91 0 102 -2 129 -25
17 -15 34 -43 42 -70 9 -33 18 -45 31 -45 11 0 19 1 19 3 0 1 14 72 30 157 16
85 30 161 30 168 0 27 -30 9 -70 -44 -62 -82 -87 -94 -197 -94 -90 0 -93 1
-93 23 1 12 20 123 43 247 l43 225 142 3 c87 1 150 -2 162 -8 33 -18 52 -57
75 -153 18 -79 24 -92 43 -95 13 -2 22 2 22 10 0 7 9 72 20 143 11 72 20 138
20 148 0 16 -26 17 -399 17 -369 0 -399 -1 -406 -17z"/>
<path d="M2655 3017 c-9 -45 -25 -119 -35 -165 l-18 -83 24 3 c17 2 50 35 111
113 120 151 127 154 348 156 94 1 169 -1 168 -5 -1 -4 -180 -251 -397 -550
-220 -301 -396 -553 -396 -564 0 -21 1 -21 433 -21 238 0 437 3 443 7 8 6 75
286 74 315 0 4 -10 7 -22 7 -17 0 -40 -23 -85 -83 -136 -181 -145 -185 -388
-188 -99 -1 -180 1 -179 6 1 4 178 250 395 547 217 296 395 550 397 564 l3 24
-429 0 -429 -1 -18 -82z"/>
</g>
</svg>
